<svg xmlns="http://www.w3.org/2000/svg" xml:space="preserve" width="655.359" height="655.359" style="shape-rendering:geometricPrecision;text-rendering:geometricPrecision;image-rendering:optimizeQuality;fill-rule:evenodd;clip-rule:evenodd" viewBox="0 0 6.827 6.827"><defs><style>.fil2{fill:#fffffe;fill-rule:nonzero}</style></defs><g id="Layer_x0020_1"><rect width="6.827" height="6.827" rx=".853" ry=".853" style="fill:#ff5722"/><path d="M1.808 2.861c-.276.047-.555.08-.834.1a.161.161 0 0 0 .023.321 8.778 8.778 0 0 0 1.46-.226.16.16 0 0 0 .028.023c.468.3.959.567 1.518.638.25.031.5.024.749-.005.304-.035.608-.1.906-.167a.161.161 0 1 0-.071-.315 8.356 8.356 0 0 1-.862.16 2.796 2.796 0 0 1-.682.008c-.423-.054-.807-.24-1.17-.457.253-.077.502-.167.744-.273.722-.315 1.38-.759 1.893-1.361a.16.16 0 1 0-.245-.209c-.48.565-1.1.98-1.777 1.275a6.84 6.84 0 0 1-1.084.364c.177-.173.342-.362.462-.58.194-.355.249-.755.273-1.152a.16.16 0 0 0-.32-.02c-.059.937-.28 1.221-.972 1.825a.16.16 0 0 0-.039.051z" style="fill:#fffffe"/><path class="fil2" d="M3.972 3.162a.641.641 0 0 1 .137.143c.013.02.03.035.05.043.048.02.092-.01.097-.068a.373.373 0 0 1 .053-.17.293.293 0 0 1 .13-.11c.037-.026.043-.093.013-.147-.029-.01-.162-.207-.198-.245a1.064 1.064 0 0 1-.15-.175c-.021-.046-.063-.075-.102-.068l-.147.027c-.038.003-.065.04-.063.091.003.062-.018.14-.04.218a.992.992 0 0 0-.047.278c-.001.013 0 .026.003.04.015.06.064.106.11.101.06-.006.11.01.154.042zM4.903 2.666a.641.641 0 0 1 .195.034c.023.008.046.01.067.005.05-.013.067-.063.037-.112a.373.373 0 0 1-.06-.168.293.293 0 0 1 .04-.166c.014-.044-.02-.1-.077-.127-.03.01-.253-.07-.305-.078a1.064 1.064 0 0 1-.224-.052c-.045-.024-.096-.022-.123.006l-.102.11c-.029.025-.028.07.004.11.038.048.068.124.097.199a.992.992 0 0 0 .128.252c.006.01.015.02.026.03.048.04.114.047.148.016a.222.222 0 0 1 .15-.059zM5.579 2.08a.641.641 0 0 1 .196-.027.119.119 0 0 0 .064-.016c.045-.027.045-.08.001-.118a.373.373 0 0 1-.106-.142.293.293 0 0 1-.014-.17c0-.046-.05-.09-.111-.097-.025.018-.263.01-.314.018a1.065 1.065 0 0 1-.23.018c-.05-.009-.098.008-.115.043l-.064.136c-.02.032-.006.076.037.104.051.034.102.097.153.16.06.073.119.146.198.201.01.008.021.015.034.02.058.024.123.011.146-.03a.222.222 0 0 1 .125-.1zM4.167 1.235a.641.641 0 0 0 .015-.197.119.119 0 0 1 .011-.065c.025-.046.077-.05.118-.009.049.05.098.082.148.098a.293.293 0 0 0 .17.003c.047-.004.093.044.105.105-.017.026.006.263.001.315a1.064 1.064 0 0 0-.003.23c.011.05-.002.099-.036.117l-.132.073c-.03.021-.075.01-.106-.03v-.001c-.037-.05-.103-.096-.169-.143-.076-.054-.153-.109-.213-.185a.142.142 0 0 1-.022-.033c-.028-.056-.019-.122.02-.147a.222.222 0 0 0 .093-.13zM3.445 1.836a.641.641 0 0 0-.072-.184.119.119 0 0 1-.018-.064c.003-.052.048-.078.103-.059.065.024.124.031.176.024a.293.293 0 0 0 .155-.071c.04-.023.102 0 .14.05-.004.03.118.234.137.283.03.078.06.157.096.209.032.04.04.09.018.122l-.087.121c-.018.034-.063.042-.109.019-.054-.028-.134-.042-.214-.056a.992.992 0 0 1-.272-.074.143.143 0 0 1-.034-.02c-.05-.039-.07-.103-.046-.142a.222.222 0 0 0 .027-.158zM1.819 2.02a.641.641 0 0 0-.106-.167.119.119 0 0 1-.03-.059c-.008-.051.032-.086.09-.077.068.01.127.007.177-.01a.293.293 0 0 0 .138-.1c.035-.03.1-.02.146.022.003.03.162.207.19.251.044.072.089.143.134.187.04.033.058.08.041.116l-.062.137c-.012.036-.054.053-.103.039a.808.808 0 0 0-.22-.014.992.992 0 0 1-.283-.02.143.143 0 0 1-.037-.014c-.055-.028-.088-.087-.072-.13a.222.222 0 0 0-.003-.16zM2.374 1.596a.335.335 0 0 0-.055-.088.062.062 0 0 1-.015-.031c-.004-.027.017-.045.047-.04a.195.195 0 0 0 .093-.005.153.153 0 0 0 .073-.051c.018-.016.052-.01.076.012.001.016.083.11.098.132a.556.556 0 0 0 .069.099c.02.017.03.042.02.06l-.032.071c-.007.02-.029.028-.054.02-.031-.01-.073-.009-.116-.008a.518.518 0 0 1-.166-.02c-.029-.015-.046-.045-.037-.068a.116.116 0 0 0-.001-.083zM4.968 4.298a.641.641 0 0 0-.123.155.119.119 0 0 1-.047.047c-.046.024-.091-.002-.102-.06a.373.373 0 0 0-.067-.164.293.293 0 0 0-.14-.098c-.04-.023-.051-.088-.026-.146.028-.012.143-.22.175-.26.053-.066.106-.13.133-.188.018-.048.058-.08.096-.077l.15.014c.037 0 .067.034.07.085a.808.808 0 0 0 .059.213.992.992 0 0 1 .073.273.143.143 0 0 1 0 .04c-.01.062-.055.111-.1.11-.06 0-.11.02-.151.056zM3.09 4.786a.503.503 0 0 1 .107.112c.01.016.025.028.04.034.038.016.072-.008.076-.053a.293.293 0 0 1 .041-.133.23.23 0 0 1 .102-.087c.03-.02.034-.072.01-.116-.022-.007-.126-.162-.155-.191a.835.835 0 0 1-.117-.138c-.017-.036-.05-.059-.08-.053l-.116.021c-.03.003-.05.031-.05.072h.001c.002.048-.015.11-.031.17a.779.779 0 0 0-.038.219c0 .01 0 .02.003.03.011.049.05.084.086.08a.174.174 0 0 1 .121.033zM4.296 5.68a.503.503 0 0 1 .152-.033.093.093 0 0 0 .05-.016c.032-.024.03-.065-.007-.092a.293.293 0 0 1-.092-.105.23.23 0 0 1-.02-.132c-.002-.036-.044-.068-.093-.07-.018.015-.205.023-.244.032a.835.835 0 0 1-.179.028c-.04-.004-.077.012-.088.04l-.042.11c-.013.026 0 .06.035.08V5.52c.042.024.086.07.13.116.05.054.1.108.166.147.008.005.017.01.028.013.046.016.097.002.112-.031a.174.174 0 0 1 .092-.086zM2.69 5.73a.503.503 0 0 1 .151-.032.093.093 0 0 0 .05-.016c.033-.024.03-.065-.006-.092a.293.293 0 0 1-.092-.105.23.23 0 0 1-.02-.133c-.002-.036-.044-.067-.093-.07-.018.016-.205.024-.245.033a.835.835 0 0 1-.178.027c-.04-.004-.077.012-.088.04l-.042.11c-.014.027 0 .06.035.08.042.024.086.07.129.116.05.054.101.108.166.146.009.006.018.01.028.014.047.015.097.001.113-.031a.174.174 0 0 1 .091-.087zM2.418 3.817a.38.38 0 0 1 .08.084.07.07 0 0 0 .03.026c.029.012.054-.006.057-.04a.22.22 0 0 1 .031-.101.173.173 0 0 1 .077-.065c.022-.016.026-.055.008-.087-.017-.006-.096-.123-.117-.145a.63.63 0 0 1-.088-.103c-.013-.028-.038-.045-.06-.04l-.088.016c-.022.001-.038.023-.037.053a.477.477 0 0 1-.023.129.587.587 0 0 0-.026.188c.008.036.037.063.064.06a.131.131 0 0 1 .092.025z"/></g></svg>